<?xml version="1.0" standalone="no"?>
<!DOCTYPE svg PUBLIC "-//W3C//DTD SVG 20010904//EN"
 "http://www.w3.org/TR/2001/REC-SVG-20010904/DTD/svg10.dtd">
<svg version="1.0" xmlns="http://www.w3.org/2000/svg"
 width="260.000000pt" height="260.000000pt" viewBox="0 0 260.000000 260.000000"
 preserveAspectRatio="xMidYMid meet">
<metadata>
Created by potrace 1.11, written by Peter Selinger 2001-2013
</metadata>
<g transform="translate(0.000000,260.000000) scale(0.100000,-0.100000)"
fill="#000000" stroke="none">
<path d="M0 1300 l0 -1300 1300 0 1300 0 0 1300 0 1300 -1300 0 -1300 0 0
-1300z m354 879 c-19 -21 -34 -25 -34 -8 0 15 32 39 43 32 5 -3 1 -14 -9 -24z
m1043 -162 c18 -40 134 -310 258 -602 125 -291 233 -543 240 -560 33 -74 75
-174 75 -179 0 -3 -292 -6 -650 -6 -357 0 -650 2 -650 5 0 20 329 685 339 685
11 0 51 -48 51 -61 0 -4 -56 -124 -125 -265 -69 -141 -125 -259 -125 -261 0
-1 200 -3 445 -3 245 0 445 3 445 6 0 6 -396 918 -410 943 -5 10 -34 -38 -92
-153 l-84 -168 -27 32 c-15 17 -27 37 -27 43 0 7 48 111 108 232 59 121 125
257 147 302 22 46 42 83 45 83 3 -1 19 -33 37 -73z m-557 -302 c-10 -12 -10
-19 2 -33 66 -78 252 -287 336 -377 76 -81 114 -131 143 -189 22 -43 38 -80
36 -83 -3 -2 -105 103 -228 234 -383 406 -355 380 -379 365 -23 -14 -27 -1 -5
18 8 7 12 17 9 22 -10 15 27 49 47 43 9 -3 20 -1 24 5 3 5 11 10 17 10 6 0 6
-6 -2 -15z"/>
</g>
</svg>
